# xmcd CD database file
#
# Track frame offsets:
#	150
#	9842
#	22271
#	33822
#	48062
#	60598
#	75847
#	87396
#	100654
#	113612
#	125726
#	139163
#	151639
#	163621
#	177975
#	189398
#	199805
#	211952
#
# Disc length: 2989 seconds
#
# Revision: 2
# Processed by: cddbd v1.5.1PL2 Copyright (c) Steve Scherf et al.
# Submitted via: Feurio! 1.68 - http://www.feurio.com
#
DISCID=d80bab12
DTITLE=Various Artist - Ride Daddy Ride: Vintage Songs About Sex 1927-1953
DYEAR=2005
DGENRE=blues
TTITLE0=Fats Noel - Ride Daddy Ride
TTITLE1=Bullmoose Jackson - I Want A Bowlegged Woman
TTITLE2=The Swallows - It Ain't The Meat, It's The Motion
TTITLE3=Papa Charlie Jackson - You Put It In, I'll Take It Out
TTITLE4=Blind Boy Fuller - Sweet Honey Hole
TTITLE5=Charlie Lincoln - Doodle Hole
TTITLE6=The Treniers - Poon Tang
TTITLE7=Bo Carter - Let Me Roll Your Lemon
TTITLE8=Eddie Miller - Good Jelly Blues
TTITLE9=Frankie 'Half-Pint' Jaxon - (It Must Be Jelly 'Cos You Know) Jam Don't 
TTITLE9=Shake
TTITLE10=The Hokum Boys - I Had To Give Up Gym
TTITLE11=Cannon's Jug Stompers - Mule Get Up In The Alley
TTITLE12=Lowell Fulson - Let Me Ride In Your Little Automobile
TTITLE13=Floyd Dixon - Baby Let's Go Down To The Woods
TTITLE14=Crown Prince Waterford - Move Your Hand Baby
TTITLE15=Johnny Temple - Sit Right On It
TTITLE16=Wynonie Harris - She Kept On Sittin' On It All The Time
TTITLE17=Jimmy Preston - Hucklebuck Baby
EXTD=
EXTT0=
EXTT1=
EXTT2=
EXTT3=
EXTT4=
EXTT5=
EXTT6=
EXTT7=
EXTT8=
EXTT9=
EXTT10=
EXTT11=
EXTT12=
EXTT13=
EXTT14=
EXTT15=
EXTT16=
EXTT17=
PLAYORDER=
